<mxfile host="app.diagrams.net" modified="2022-11-14T19:33:18.455Z" agent="5.0 (Windows)" etag="trCuCN5VrD0Gf-h4PhK4" version="20.5.3" type="github">
  <diagram id="kxoggQMOIerRVnNvIGJB" name="Page-1">
    <mxGraphModel dx="1129" dy="572" grid="0" gridSize="10" guides="1" tooltips="1" connect="1" arrows="1" fold="1" page="0" pageScale="1" pageWidth="850" pageHeight="1100" math="0" shadow="0">
      <root>
        <mxCell id="0" />
        <mxCell id="1" parent="0" />
        <mxCell id="7NXTXkRg-UbdUnaUzsDT-55" value="" style="rounded=0;whiteSpace=wrap;html=1;dashed=1;" vertex="1" parent="1">
          <mxGeometry x="677" y="222" width="235" height="301" as="geometry" />
        </mxCell>
        <mxCell id="7NXTXkRg-UbdUnaUzsDT-53" value="" style="rounded=0;whiteSpace=wrap;html=1;dashed=1;" vertex="1" parent="1">
          <mxGeometry x="356" y="193" width="263" height="339" as="geometry" />
        </mxCell>
        <mxCell id="7NXTXkRg-UbdUnaUzsDT-4" style="edgeStyle=orthogonalEdgeStyle;rounded=0;orthogonalLoop=1;jettySize=auto;html=1;" edge="1" parent="1" source="7NXTXkRg-UbdUnaUzsDT-1" target="7NXTXkRg-UbdUnaUzsDT-3">
          <mxGeometry relative="1" as="geometry" />
        </mxCell>
        <mxCell id="7NXTXkRg-UbdUnaUzsDT-1" value="&lt;div&gt;Internet&lt;/div&gt;" style="outlineConnect=0;dashed=0;verticalLabelPosition=bottom;verticalAlign=top;align=center;html=1;shape=mxgraph.aws3.internet_3;fillColor=#D2D3D3;gradientColor=none;" vertex="1" parent="1">
          <mxGeometry x="35" y="335" width="100" height="61" as="geometry" />
        </mxCell>
        <mxCell id="7NXTXkRg-UbdUnaUzsDT-7" style="edgeStyle=orthogonalEdgeStyle;rounded=0;orthogonalLoop=1;jettySize=auto;html=1;" edge="1" parent="1" source="7NXTXkRg-UbdUnaUzsDT-3" target="7NXTXkRg-UbdUnaUzsDT-6">
          <mxGeometry relative="1" as="geometry" />
        </mxCell>
        <mxCell id="7NXTXkRg-UbdUnaUzsDT-3" value="CDN" style="sketch=0;aspect=fixed;html=1;points=[];align=center;image;fontSize=12;image=img/lib/mscae/Content_Delivery_Network.svg;" vertex="1" parent="1">
          <mxGeometry x="206" y="344.5" width="91.3" height="42" as="geometry" />
        </mxCell>
        <mxCell id="7NXTXkRg-UbdUnaUzsDT-34" style="edgeStyle=orthogonalEdgeStyle;rounded=0;orthogonalLoop=1;jettySize=auto;html=1;entryX=0.548;entryY=0.13;entryDx=0;entryDy=0;entryPerimeter=0;movable=1;resizable=1;rotatable=1;deletable=1;editable=1;connectable=1;" edge="1" parent="1" source="7NXTXkRg-UbdUnaUzsDT-8" target="7NXTXkRg-UbdUnaUzsDT-31">
          <mxGeometry relative="1" as="geometry" />
        </mxCell>
        <mxCell id="7NXTXkRg-UbdUnaUzsDT-8" value="Redis" style="sketch=0;aspect=fixed;html=1;points=[];align=center;image;fontSize=12;image=img/lib/mscae/Cache_Redis_Product.svg;dashed=1;movable=1;resizable=1;rotatable=1;deletable=1;editable=1;connectable=1;" vertex="1" parent="1">
          <mxGeometry x="531.38" y="223" width="54.76" height="46" as="geometry" />
        </mxCell>
        <mxCell id="7NXTXkRg-UbdUnaUzsDT-32" style="edgeStyle=orthogonalEdgeStyle;rounded=0;orthogonalLoop=1;jettySize=auto;html=1;movable=1;resizable=1;rotatable=1;deletable=1;editable=1;connectable=1;" edge="1" parent="1" source="7NXTXkRg-UbdUnaUzsDT-6" target="7NXTXkRg-UbdUnaUzsDT-31">
          <mxGeometry relative="1" as="geometry" />
        </mxCell>
        <mxCell id="7NXTXkRg-UbdUnaUzsDT-6" value="Gateway" style="outlineConnect=0;dashed=0;verticalLabelPosition=bottom;verticalAlign=top;align=center;html=1;shape=mxgraph.aws3.customer_gateway;fillColor=#F58534;gradientColor=none;movable=1;resizable=1;rotatable=1;deletable=1;editable=1;connectable=1;" vertex="1" parent="1">
          <mxGeometry x="377" y="335" width="57" height="61" as="geometry" />
        </mxCell>
        <mxCell id="7NXTXkRg-UbdUnaUzsDT-49" value="read" style="edgeStyle=orthogonalEdgeStyle;rounded=0;orthogonalLoop=1;jettySize=auto;html=1;" edge="1" parent="1" source="7NXTXkRg-UbdUnaUzsDT-31" target="7NXTXkRg-UbdUnaUzsDT-40">
          <mxGeometry x="0.5653" y="-19" relative="1" as="geometry">
            <mxPoint y="1" as="offset" />
          </mxGeometry>
        </mxCell>
        <mxCell id="7NXTXkRg-UbdUnaUzsDT-51" value="write" style="edgeStyle=orthogonalEdgeStyle;rounded=0;orthogonalLoop=1;jettySize=auto;html=1;entryX=-0.026;entryY=0.62;entryDx=0;entryDy=0;entryPerimeter=0;" edge="1" parent="1" source="7NXTXkRg-UbdUnaUzsDT-31" target="7NXTXkRg-UbdUnaUzsDT-41">
          <mxGeometry x="0.6403" y="-18" relative="1" as="geometry">
            <mxPoint as="offset" />
          </mxGeometry>
        </mxCell>
        <mxCell id="7NXTXkRg-UbdUnaUzsDT-52" value="read" style="edgeStyle=orthogonalEdgeStyle;rounded=0;orthogonalLoop=1;jettySize=auto;html=1;entryX=0;entryY=0.66;entryDx=0;entryDy=0;entryPerimeter=0;" edge="1" parent="1" source="7NXTXkRg-UbdUnaUzsDT-31" target="7NXTXkRg-UbdUnaUzsDT-39">
          <mxGeometry x="0.6479" y="-12" relative="1" as="geometry">
            <mxPoint as="offset" />
          </mxGeometry>
        </mxCell>
        <mxCell id="7NXTXkRg-UbdUnaUzsDT-31" value="multiple instances" style="sketch=0;aspect=fixed;html=1;points=[];align=center;image;fontSize=12;image=img/lib/mscae/VM_Scale_Set.svg;dashed=1;movable=1;resizable=1;rotatable=1;deletable=1;editable=1;connectable=1;" vertex="1" parent="1">
          <mxGeometry x="531.38" y="340.5" width="50" height="50" as="geometry" />
        </mxCell>
        <mxCell id="7NXTXkRg-UbdUnaUzsDT-39" value="slave" style="sketch=0;aspect=fixed;html=1;points=[];align=center;image;fontSize=12;image=img/lib/mscae/Database_General.svg;" vertex="1" parent="1">
          <mxGeometry x="818" y="251" width="38" height="50" as="geometry" />
        </mxCell>
        <mxCell id="7NXTXkRg-UbdUnaUzsDT-40" value="slave" style="sketch=0;aspect=fixed;html=1;points=[];align=center;image;fontSize=12;image=img/lib/mscae/Database_General.svg;" vertex="1" parent="1">
          <mxGeometry x="816" y="340.5" width="38" height="50" as="geometry" />
        </mxCell>
        <mxCell id="7NXTXkRg-UbdUnaUzsDT-42" style="edgeStyle=orthogonalEdgeStyle;rounded=0;orthogonalLoop=1;jettySize=auto;html=1;entryX=1.026;entryY=0.44;entryDx=0;entryDy=0;entryPerimeter=0;exitX=1;exitY=0.52;exitDx=0;exitDy=0;exitPerimeter=0;" edge="1" parent="1" source="7NXTXkRg-UbdUnaUzsDT-41" target="7NXTXkRg-UbdUnaUzsDT-40">
          <mxGeometry relative="1" as="geometry" />
        </mxCell>
        <mxCell id="7NXTXkRg-UbdUnaUzsDT-50" style="edgeStyle=orthogonalEdgeStyle;rounded=0;orthogonalLoop=1;jettySize=auto;html=1;entryX=0.974;entryY=0.46;entryDx=0;entryDy=0;entryPerimeter=0;exitX=1;exitY=0.54;exitDx=0;exitDy=0;exitPerimeter=0;" edge="1" parent="1" source="7NXTXkRg-UbdUnaUzsDT-41" target="7NXTXkRg-UbdUnaUzsDT-39">
          <mxGeometry relative="1" as="geometry" />
        </mxCell>
        <mxCell id="7NXTXkRg-UbdUnaUzsDT-41" value="master" style="sketch=0;aspect=fixed;html=1;points=[];align=center;image;fontSize=12;image=img/lib/mscae/Database_General.svg;" vertex="1" parent="1">
          <mxGeometry x="820" y="425" width="38" height="50" as="geometry" />
        </mxCell>
        <mxCell id="7NXTXkRg-UbdUnaUzsDT-54" value="swarm" style="text;html=1;strokeColor=none;fillColor=none;align=center;verticalAlign=middle;whiteSpace=wrap;rounded=0;dashed=1;" vertex="1" parent="1">
          <mxGeometry x="455" y="545" width="60" height="30" as="geometry" />
        </mxCell>
        <mxCell id="7NXTXkRg-UbdUnaUzsDT-56" value="swarm" style="text;html=1;strokeColor=none;fillColor=none;align=center;verticalAlign=middle;whiteSpace=wrap;rounded=0;dashed=1;" vertex="1" parent="1">
          <mxGeometry x="771" y="539" width="60" height="30" as="geometry" />
        </mxCell>
        <mxCell id="7NXTXkRg-UbdUnaUzsDT-58" value="authorize" style="endArrow=none;html=1;rounded=0;" edge="1" parent="1">
          <mxGeometry x="1" y="18" width="50" height="50" relative="1" as="geometry">
            <mxPoint x="470" y="396" as="sourcePoint" />
            <mxPoint x="473" y="305" as="targetPoint" />
            <mxPoint x="18" y="-17" as="offset" />
          </mxGeometry>
        </mxCell>
      </root>
    </mxGraphModel>
  </diagram>
</mxfile>
